<mxfile host="Electron" agent="Mozilla/5.0 (Windows NT 10.0; Win64; x64) AppleWebKit/537.36 (KHTML, like Gecko) draw.io/24.7.8 Chrome/128.0.6613.36 Electron/32.0.1 Safari/537.36" version="24.7.8">
  <diagram name="Page-1" id="NOhmpm2I6Y5j2CwvYXzQ">
    <mxGraphModel dx="819" dy="505" grid="1" gridSize="10" guides="1" tooltips="1" connect="1" arrows="1" fold="1" page="1" pageScale="1" pageWidth="1169" pageHeight="827" math="0" shadow="0">
      <root>
        <mxCell id="0" />
        <mxCell id="1" parent="0" />
        <mxCell id="3qSn1Zt4RomEvtN13Dh5-1" value="" style="endArrow=none;html=1;rounded=0;strokeWidth=2;" edge="1" parent="1">
          <mxGeometry width="50" height="50" relative="1" as="geometry">
            <mxPoint x="66" y="189" as="sourcePoint" />
            <mxPoint x="76" y="110" as="targetPoint" />
          </mxGeometry>
        </mxCell>
        <mxCell id="3qSn1Zt4RomEvtN13Dh5-2" value="" style="endArrow=none;html=1;rounded=0;strokeWidth=2;" edge="1" parent="1">
          <mxGeometry width="50" height="50" relative="1" as="geometry">
            <mxPoint x="146" y="190" as="sourcePoint" />
            <mxPoint x="76" y="110" as="targetPoint" />
          </mxGeometry>
        </mxCell>
        <mxCell id="3qSn1Zt4RomEvtN13Dh5-3" value="" style="endArrow=none;html=1;rounded=0;strokeWidth=2;" edge="1" parent="1">
          <mxGeometry width="50" height="50" relative="1" as="geometry">
            <mxPoint x="146" y="190" as="sourcePoint" />
            <mxPoint x="226" y="150" as="targetPoint" />
          </mxGeometry>
        </mxCell>
        <mxCell id="3qSn1Zt4RomEvtN13Dh5-4" value="" style="endArrow=none;html=1;rounded=0;strokeColor=#FF6666;dashed=1;" edge="1" parent="1">
          <mxGeometry width="50" height="50" relative="1" as="geometry">
            <mxPoint x="66" y="190" as="sourcePoint" />
            <mxPoint x="226" y="150" as="targetPoint" />
          </mxGeometry>
        </mxCell>
        <mxCell id="3qSn1Zt4RomEvtN13Dh5-6" value="" style="curved=1;endArrow=classic;html=1;rounded=0;strokeColor=#CCCCCC;" edge="1" parent="1">
          <mxGeometry width="50" height="50" relative="1" as="geometry">
            <mxPoint x="206" y="64" as="sourcePoint" />
            <mxPoint x="166" y="164" as="targetPoint" />
            <Array as="points">
              <mxPoint x="146" y="64" />
              <mxPoint x="136" y="114" />
            </Array>
          </mxGeometry>
        </mxCell>
        <mxCell id="3qSn1Zt4RomEvtN13Dh5-7" value="Segment représentatif du pattern" style="text;html=1;align=center;verticalAlign=middle;whiteSpace=wrap;rounded=0;" vertex="1" parent="1">
          <mxGeometry x="201" y="50" width="190" height="30" as="geometry" />
        </mxCell>
        <mxCell id="3qSn1Zt4RomEvtN13Dh5-8" value="" style="endArrow=none;html=1;rounded=0;strokeColor=#FF6666;dashed=1;" edge="1" parent="1">
          <mxGeometry width="50" height="50" relative="1" as="geometry">
            <mxPoint x="486" y="190" as="sourcePoint" />
            <mxPoint x="646" y="150" as="targetPoint" />
          </mxGeometry>
        </mxCell>
        <mxCell id="3qSn1Zt4RomEvtN13Dh5-9" value="" style="endArrow=none;html=1;rounded=0;strokeColor=#FF6666;dashed=1;" edge="1" parent="1">
          <mxGeometry width="50" height="50" relative="1" as="geometry">
            <mxPoint x="766" y="190" as="sourcePoint" />
            <mxPoint x="926" y="150" as="targetPoint" />
          </mxGeometry>
        </mxCell>
        <mxCell id="3qSn1Zt4RomEvtN13Dh5-10" value="" style="endArrow=none;html=1;rounded=0;" edge="1" parent="1">
          <mxGeometry width="50" height="50" relative="1" as="geometry">
            <mxPoint x="758" y="160" as="sourcePoint" />
            <mxPoint x="768" y="200" as="targetPoint" />
          </mxGeometry>
        </mxCell>
        <mxCell id="3qSn1Zt4RomEvtN13Dh5-11" value="" style="endArrow=none;html=1;rounded=0;" edge="1" parent="1">
          <mxGeometry width="50" height="50" relative="1" as="geometry">
            <mxPoint x="919" y="119" as="sourcePoint" />
            <mxPoint x="929" y="159" as="targetPoint" />
          </mxGeometry>
        </mxCell>
        <mxCell id="3qSn1Zt4RomEvtN13Dh5-12" value="Longueur" style="endArrow=classic;startArrow=classic;html=1;rounded=0;" edge="1" parent="1">
          <mxGeometry x="0.0027" y="17" width="50" height="50" relative="1" as="geometry">
            <mxPoint x="760" y="167" as="sourcePoint" />
            <mxPoint x="920" y="126" as="targetPoint" />
            <mxPoint as="offset" />
          </mxGeometry>
        </mxCell>
        <mxCell id="3qSn1Zt4RomEvtN13Dh5-13" value="" style="endArrow=none;html=1;rounded=0;" edge="1" parent="1">
          <mxGeometry width="50" height="50" relative="1" as="geometry">
            <mxPoint x="486" y="190" as="sourcePoint" />
            <mxPoint x="486" y="70" as="targetPoint" />
          </mxGeometry>
        </mxCell>
        <mxCell id="3qSn1Zt4RomEvtN13Dh5-14" value="" style="verticalLabelPosition=bottom;verticalAlign=top;html=1;shape=mxgraph.basic.arc;startAngle=0;endAngle=0.20895958256931504;" vertex="1" parent="1">
          <mxGeometry x="446" y="150" width="80" height="80" as="geometry" />
        </mxCell>
        <mxCell id="3qSn1Zt4RomEvtN13Dh5-15" value="Angle (~84°)" style="text;html=1;align=center;verticalAlign=middle;whiteSpace=wrap;rounded=0;" vertex="1" parent="1">
          <mxGeometry x="486" y="130" width="110" height="30" as="geometry" />
        </mxCell>
        <mxCell id="3qSn1Zt4RomEvtN13Dh5-16" value="0°" style="text;html=1;align=center;verticalAlign=middle;whiteSpace=wrap;rounded=0;" vertex="1" parent="1">
          <mxGeometry x="456" y="40" width="60" height="30" as="geometry" />
        </mxCell>
        <mxCell id="3qSn1Zt4RomEvtN13Dh5-17" value="90°" style="text;html=1;align=center;verticalAlign=middle;whiteSpace=wrap;rounded=0;" vertex="1" parent="1">
          <mxGeometry x="616" y="175" width="60" height="30" as="geometry" />
        </mxCell>
        <mxCell id="3qSn1Zt4RomEvtN13Dh5-18" value="180°" style="text;html=1;align=center;verticalAlign=middle;whiteSpace=wrap;rounded=0;" vertex="1" parent="1">
          <mxGeometry x="456" y="230" width="60" height="30" as="geometry" />
        </mxCell>
        <mxCell id="3qSn1Zt4RomEvtN13Dh5-19" value="-90°" style="text;html=1;align=center;verticalAlign=middle;whiteSpace=wrap;rounded=0;" vertex="1" parent="1">
          <mxGeometry x="376" y="175" width="60" height="30" as="geometry" />
        </mxCell>
        <mxCell id="3qSn1Zt4RomEvtN13Dh5-23" value="" style="endArrow=none;html=1;rounded=0;strokeColor=#FF6666;dashed=1;" edge="1" parent="1">
          <mxGeometry width="50" height="50" relative="1" as="geometry">
            <mxPoint x="446" y="390" as="sourcePoint" />
            <mxPoint x="486" y="430" as="targetPoint" />
          </mxGeometry>
        </mxCell>
        <mxCell id="3qSn1Zt4RomEvtN13Dh5-24" value="" style="group" vertex="1" connectable="0" parent="1">
          <mxGeometry x="206" y="390" width="160" height="80" as="geometry" />
        </mxCell>
        <mxCell id="3qSn1Zt4RomEvtN13Dh5-20" value="" style="endArrow=none;html=1;rounded=0;strokeWidth=2;" edge="1" parent="3qSn1Zt4RomEvtN13Dh5-24">
          <mxGeometry width="50" height="50" relative="1" as="geometry">
            <mxPoint y="79" as="sourcePoint" />
            <mxPoint x="10" as="targetPoint" />
          </mxGeometry>
        </mxCell>
        <mxCell id="3qSn1Zt4RomEvtN13Dh5-21" value="" style="endArrow=none;html=1;rounded=0;strokeWidth=2;" edge="1" parent="3qSn1Zt4RomEvtN13Dh5-24">
          <mxGeometry width="50" height="50" relative="1" as="geometry">
            <mxPoint x="80" y="80" as="sourcePoint" />
            <mxPoint x="10" as="targetPoint" />
          </mxGeometry>
        </mxCell>
        <mxCell id="3qSn1Zt4RomEvtN13Dh5-22" value="" style="endArrow=none;html=1;rounded=0;strokeWidth=2;" edge="1" parent="3qSn1Zt4RomEvtN13Dh5-24">
          <mxGeometry width="50" height="50" relative="1" as="geometry">
            <mxPoint x="80" y="80" as="sourcePoint" />
            <mxPoint x="160" y="40" as="targetPoint" />
          </mxGeometry>
        </mxCell>
        <mxCell id="3qSn1Zt4RomEvtN13Dh5-98" value="" style="endArrow=none;html=1;rounded=0;strokeColor=#FF6666;dashed=1;" edge="1" parent="3qSn1Zt4RomEvtN13Dh5-24">
          <mxGeometry width="50" height="50" relative="1" as="geometry">
            <mxPoint y="80" as="sourcePoint" />
            <mxPoint x="160" y="40" as="targetPoint" />
          </mxGeometry>
        </mxCell>
        <mxCell id="3qSn1Zt4RomEvtN13Dh5-25" value="" style="endArrow=none;html=1;rounded=0;" edge="1" parent="1">
          <mxGeometry width="50" height="50" relative="1" as="geometry">
            <mxPoint x="86" y="470" as="sourcePoint" />
            <mxPoint x="486" y="470" as="targetPoint" />
          </mxGeometry>
        </mxCell>
        <mxCell id="3qSn1Zt4RomEvtN13Dh5-26" value="" style="endArrow=none;html=1;rounded=0;" edge="1" parent="1">
          <mxGeometry width="50" height="50" relative="1" as="geometry">
            <mxPoint x="206" y="310" as="sourcePoint" />
            <mxPoint x="206" y="550" as="targetPoint" />
          </mxGeometry>
        </mxCell>
        <mxCell id="3qSn1Zt4RomEvtN13Dh5-39" value="" style="endArrow=none;html=1;rounded=0;strokeColor=#FF6666;dashed=1;" edge="1" parent="1">
          <mxGeometry width="50" height="50" relative="1" as="geometry">
            <mxPoint x="1040" y="400" as="sourcePoint" />
            <mxPoint x="1080" y="440" as="targetPoint" />
          </mxGeometry>
        </mxCell>
        <mxCell id="3qSn1Zt4RomEvtN13Dh5-40" value="" style="group" vertex="1" connectable="0" parent="1">
          <mxGeometry x="800" y="400" width="160" height="130" as="geometry" />
        </mxCell>
        <mxCell id="3qSn1Zt4RomEvtN13Dh5-41" value="" style="endArrow=none;html=1;rounded=0;strokeWidth=2;" edge="1" parent="3qSn1Zt4RomEvtN13Dh5-40">
          <mxGeometry width="50" height="50" relative="1" as="geometry">
            <mxPoint y="79" as="sourcePoint" />
            <mxPoint x="10" as="targetPoint" />
          </mxGeometry>
        </mxCell>
        <mxCell id="3qSn1Zt4RomEvtN13Dh5-42" value="" style="endArrow=none;html=1;rounded=0;strokeWidth=2;" edge="1" parent="3qSn1Zt4RomEvtN13Dh5-40">
          <mxGeometry width="50" height="50" relative="1" as="geometry">
            <mxPoint x="80" y="80" as="sourcePoint" />
            <mxPoint x="10" as="targetPoint" />
          </mxGeometry>
        </mxCell>
        <mxCell id="3qSn1Zt4RomEvtN13Dh5-43" value="" style="endArrow=none;html=1;rounded=0;strokeWidth=2;" edge="1" parent="3qSn1Zt4RomEvtN13Dh5-40">
          <mxGeometry width="50" height="50" relative="1" as="geometry">
            <mxPoint x="80" y="80" as="sourcePoint" />
            <mxPoint x="160" y="40" as="targetPoint" />
          </mxGeometry>
        </mxCell>
        <mxCell id="3qSn1Zt4RomEvtN13Dh5-112" value="" style="endArrow=none;html=1;rounded=0;strokeColor=#FF6666;dashed=1;" edge="1" parent="3qSn1Zt4RomEvtN13Dh5-40">
          <mxGeometry width="50" height="50" relative="1" as="geometry">
            <mxPoint y="80" as="sourcePoint" />
            <mxPoint x="160" y="40" as="targetPoint" />
          </mxGeometry>
        </mxCell>
        <mxCell id="3qSn1Zt4RomEvtN13Dh5-44" value="" style="endArrow=none;html=1;rounded=0;" edge="1" parent="1">
          <mxGeometry width="50" height="50" relative="1" as="geometry">
            <mxPoint x="680" y="480" as="sourcePoint" />
            <mxPoint x="1080" y="480" as="targetPoint" />
          </mxGeometry>
        </mxCell>
        <mxCell id="3qSn1Zt4RomEvtN13Dh5-45" value="" style="endArrow=none;html=1;rounded=0;" edge="1" parent="1">
          <mxGeometry width="50" height="50" relative="1" as="geometry">
            <mxPoint x="800" y="320" as="sourcePoint" />
            <mxPoint x="800" y="560" as="targetPoint" />
          </mxGeometry>
        </mxCell>
        <mxCell id="3qSn1Zt4RomEvtN13Dh5-46" value="" style="group;rotation=-122.4;" vertex="1" connectable="0" parent="1">
          <mxGeometry x="652" y="384" width="160" height="80" as="geometry" />
        </mxCell>
        <mxCell id="3qSn1Zt4RomEvtN13Dh5-47" value="" style="endArrow=none;html=1;rounded=0;strokeWidth=2;" edge="1" parent="3qSn1Zt4RomEvtN13Dh5-46">
          <mxGeometry width="50" height="50" relative="1" as="geometry">
            <mxPoint x="147" y="95" as="sourcePoint" />
            <mxPoint x="76" y="129" as="targetPoint" />
          </mxGeometry>
        </mxCell>
        <mxCell id="3qSn1Zt4RomEvtN13Dh5-48" value="" style="endArrow=none;html=1;rounded=0;strokeWidth=2;" edge="1" parent="3qSn1Zt4RomEvtN13Dh5-46">
          <mxGeometry width="50" height="50" relative="1" as="geometry">
            <mxPoint x="105" y="27" as="sourcePoint" />
            <mxPoint x="76" y="129" as="targetPoint" />
          </mxGeometry>
        </mxCell>
        <mxCell id="3qSn1Zt4RomEvtN13Dh5-49" value="" style="endArrow=none;html=1;rounded=0;strokeWidth=2;" edge="1" parent="3qSn1Zt4RomEvtN13Dh5-46">
          <mxGeometry width="50" height="50" relative="1" as="geometry">
            <mxPoint x="105" y="27" as="sourcePoint" />
            <mxPoint x="28" y="-20" as="targetPoint" />
          </mxGeometry>
        </mxCell>
        <mxCell id="3qSn1Zt4RomEvtN13Dh5-58" value="" style="endArrow=none;html=1;rounded=0;strokeColor=#FF6666;dashed=1;" edge="1" parent="1">
          <mxGeometry width="50" height="50" relative="1" as="geometry">
            <mxPoint x="436" y="660" as="sourcePoint" />
            <mxPoint x="476" y="700" as="targetPoint" />
          </mxGeometry>
        </mxCell>
        <mxCell id="3qSn1Zt4RomEvtN13Dh5-63" value="" style="endArrow=none;html=1;rounded=0;" edge="1" parent="1">
          <mxGeometry width="50" height="50" relative="1" as="geometry">
            <mxPoint x="76" y="740" as="sourcePoint" />
            <mxPoint x="476" y="740" as="targetPoint" />
          </mxGeometry>
        </mxCell>
        <mxCell id="3qSn1Zt4RomEvtN13Dh5-64" value="" style="endArrow=none;html=1;rounded=0;" edge="1" parent="1">
          <mxGeometry width="50" height="50" relative="1" as="geometry">
            <mxPoint x="196" y="580" as="sourcePoint" />
            <mxPoint x="196" y="820" as="targetPoint" />
          </mxGeometry>
        </mxCell>
        <mxCell id="3qSn1Zt4RomEvtN13Dh5-65" value="" style="group;rotation=-135;" vertex="1" connectable="0" parent="1">
          <mxGeometry x="30" y="670" width="160" height="80" as="geometry" />
        </mxCell>
        <mxCell id="3qSn1Zt4RomEvtN13Dh5-66" value="" style="endArrow=none;html=1;rounded=0;strokeWidth=2;" edge="1" parent="3qSn1Zt4RomEvtN13Dh5-65">
          <mxGeometry width="50" height="50" relative="1" as="geometry">
            <mxPoint x="164" y="69" as="sourcePoint" />
            <mxPoint x="101" y="118" as="targetPoint" />
          </mxGeometry>
        </mxCell>
        <mxCell id="3qSn1Zt4RomEvtN13Dh5-67" value="" style="endArrow=none;html=1;rounded=0;strokeWidth=2;" edge="1" parent="3qSn1Zt4RomEvtN13Dh5-65">
          <mxGeometry width="50" height="50" relative="1" as="geometry">
            <mxPoint x="108" y="12" as="sourcePoint" />
            <mxPoint x="101" y="118" as="targetPoint" />
          </mxGeometry>
        </mxCell>
        <mxCell id="3qSn1Zt4RomEvtN13Dh5-68" value="" style="endArrow=none;html=1;rounded=0;strokeWidth=2;" edge="1" parent="3qSn1Zt4RomEvtN13Dh5-65">
          <mxGeometry width="50" height="50" relative="1" as="geometry">
            <mxPoint x="108" y="12" as="sourcePoint" />
            <mxPoint x="23" y="-17" as="targetPoint" />
          </mxGeometry>
        </mxCell>
        <mxCell id="3qSn1Zt4RomEvtN13Dh5-73" value="" style="group;rotation=-135;imageWidth=24;imageHeight=24;arcSize=12;" vertex="1" connectable="0" parent="1">
          <mxGeometry x="164" y="752" width="56" height="27" as="geometry" />
        </mxCell>
        <mxCell id="3qSn1Zt4RomEvtN13Dh5-74" value="" style="endArrow=none;html=1;rounded=0;strokeWidth=2;" edge="1" parent="3qSn1Zt4RomEvtN13Dh5-73">
          <mxGeometry width="50" height="50" relative="1" as="geometry">
            <mxPoint x="29" y="-13" as="sourcePoint" />
            <mxPoint x="5" y="5" as="targetPoint" />
          </mxGeometry>
        </mxCell>
        <mxCell id="3qSn1Zt4RomEvtN13Dh5-75" value="" style="endArrow=none;html=1;rounded=0;strokeWidth=2;" edge="1" parent="3qSn1Zt4RomEvtN13Dh5-73">
          <mxGeometry width="50" height="50" relative="1" as="geometry">
            <mxPoint x="8" y="-34" as="sourcePoint" />
            <mxPoint x="5" y="5" as="targetPoint" />
          </mxGeometry>
        </mxCell>
        <mxCell id="3qSn1Zt4RomEvtN13Dh5-76" value="" style="endArrow=none;html=1;rounded=0;strokeWidth=2;" edge="1" parent="3qSn1Zt4RomEvtN13Dh5-73">
          <mxGeometry width="50" height="50" relative="1" as="geometry">
            <mxPoint x="8" y="-34" as="sourcePoint" />
            <mxPoint x="-25" y="-46" as="targetPoint" />
          </mxGeometry>
        </mxCell>
        <mxCell id="3qSn1Zt4RomEvtN13Dh5-77" value="" style="endArrow=none;html=1;rounded=0;strokeColor=#FF6666;dashed=1;" edge="1" parent="1">
          <mxGeometry width="50" height="50" relative="1" as="geometry">
            <mxPoint x="1022" y="650" as="sourcePoint" />
            <mxPoint x="1062" y="690" as="targetPoint" />
          </mxGeometry>
        </mxCell>
        <mxCell id="3qSn1Zt4RomEvtN13Dh5-82" value="" style="endArrow=none;html=1;rounded=0;" edge="1" parent="1">
          <mxGeometry width="50" height="50" relative="1" as="geometry">
            <mxPoint x="662" y="730" as="sourcePoint" />
            <mxPoint x="1062" y="730" as="targetPoint" />
          </mxGeometry>
        </mxCell>
        <mxCell id="3qSn1Zt4RomEvtN13Dh5-83" value="" style="endArrow=none;html=1;rounded=0;" edge="1" parent="1">
          <mxGeometry width="50" height="50" relative="1" as="geometry">
            <mxPoint x="782" y="570" as="sourcePoint" />
            <mxPoint x="782" y="810" as="targetPoint" />
          </mxGeometry>
        </mxCell>
        <mxCell id="3qSn1Zt4RomEvtN13Dh5-88" value="" style="group;rotation=-125;imageWidth=24;imageHeight=24;arcSize=12;" vertex="1" connectable="0" parent="1">
          <mxGeometry x="1032" y="703" width="56" height="27" as="geometry" />
        </mxCell>
        <mxCell id="3qSn1Zt4RomEvtN13Dh5-89" value="" style="endArrow=none;html=1;rounded=0;strokeWidth=2;" edge="1" parent="3qSn1Zt4RomEvtN13Dh5-88">
          <mxGeometry width="50" height="50" relative="1" as="geometry">
            <mxPoint x="33" y="-13" as="sourcePoint" />
            <mxPoint x="7" y="1" as="targetPoint" />
          </mxGeometry>
        </mxCell>
        <mxCell id="3qSn1Zt4RomEvtN13Dh5-90" value="" style="endArrow=none;html=1;rounded=0;strokeWidth=2;" edge="1" parent="3qSn1Zt4RomEvtN13Dh5-88">
          <mxGeometry width="50" height="50" relative="1" as="geometry">
            <mxPoint x="16" y="-38" as="sourcePoint" />
            <mxPoint x="7" y="1" as="targetPoint" />
          </mxGeometry>
        </mxCell>
        <mxCell id="3qSn1Zt4RomEvtN13Dh5-91" value="" style="endArrow=none;html=1;rounded=0;strokeWidth=2;" edge="1" parent="3qSn1Zt4RomEvtN13Dh5-88">
          <mxGeometry width="50" height="50" relative="1" as="geometry">
            <mxPoint x="16" y="-38" as="sourcePoint" />
            <mxPoint x="-14" y="-54" as="targetPoint" />
          </mxGeometry>
        </mxCell>
        <mxCell id="3qSn1Zt4RomEvtN13Dh5-92" value="" style="group;rotation=-135;imageWidth=24;imageHeight=24;arcSize=12;" vertex="1" connectable="0" parent="1">
          <mxGeometry x="752" y="742" width="56" height="27" as="geometry" />
        </mxCell>
        <mxCell id="3qSn1Zt4RomEvtN13Dh5-93" value="" style="endArrow=none;html=1;rounded=0;strokeWidth=2;" edge="1" parent="3qSn1Zt4RomEvtN13Dh5-92">
          <mxGeometry width="50" height="50" relative="1" as="geometry">
            <mxPoint x="29" y="-13" as="sourcePoint" />
            <mxPoint x="5" y="5" as="targetPoint" />
          </mxGeometry>
        </mxCell>
        <mxCell id="3qSn1Zt4RomEvtN13Dh5-94" value="" style="endArrow=none;html=1;rounded=0;strokeWidth=2;" edge="1" parent="3qSn1Zt4RomEvtN13Dh5-92">
          <mxGeometry width="50" height="50" relative="1" as="geometry">
            <mxPoint x="8" y="-34" as="sourcePoint" />
            <mxPoint x="5" y="5" as="targetPoint" />
          </mxGeometry>
        </mxCell>
        <mxCell id="3qSn1Zt4RomEvtN13Dh5-95" value="" style="endArrow=none;html=1;rounded=0;strokeWidth=2;" edge="1" parent="3qSn1Zt4RomEvtN13Dh5-92">
          <mxGeometry width="50" height="50" relative="1" as="geometry">
            <mxPoint x="8" y="-34" as="sourcePoint" />
            <mxPoint x="-25" y="-46" as="targetPoint" />
          </mxGeometry>
        </mxCell>
        <mxCell id="3qSn1Zt4RomEvtN13Dh5-96" value="p1" style="text;html=1;align=center;verticalAlign=middle;whiteSpace=wrap;rounded=0;" vertex="1" parent="1">
          <mxGeometry x="466" y="415" width="60" height="30" as="geometry" />
        </mxCell>
        <mxCell id="3qSn1Zt4RomEvtN13Dh5-97" value="p2" style="text;html=1;align=center;verticalAlign=middle;whiteSpace=wrap;rounded=0;" vertex="1" parent="1">
          <mxGeometry x="420" y="360" width="60" height="30" as="geometry" />
        </mxCell>
        <mxCell id="3qSn1Zt4RomEvtN13Dh5-99" value="Objectif: coller ça ici" style="text;html=1;align=center;verticalAlign=middle;whiteSpace=wrap;rounded=0;" vertex="1" parent="1">
          <mxGeometry x="326" y="318" width="124" height="30" as="geometry" />
        </mxCell>
        <mxCell id="3qSn1Zt4RomEvtN13Dh5-100" value="" style="curved=1;endArrow=classic;html=1;rounded=0;strokeColor=#CCCCCC;" edge="1" parent="1">
          <mxGeometry width="50" height="50" relative="1" as="geometry">
            <mxPoint x="331" y="332" as="sourcePoint" />
            <mxPoint x="300" y="440" as="targetPoint" />
            <Array as="points">
              <mxPoint x="271" y="332" />
              <mxPoint x="261" y="382" />
            </Array>
          </mxGeometry>
        </mxCell>
        <mxCell id="3qSn1Zt4RomEvtN13Dh5-101" value="" style="curved=1;endArrow=classic;html=1;rounded=0;strokeColor=#CCCCCC;" edge="1" parent="1">
          <mxGeometry width="50" height="50" relative="1" as="geometry">
            <mxPoint x="451" y="332" as="sourcePoint" />
            <mxPoint x="470" y="410" as="targetPoint" />
            <Array as="points">
              <mxPoint x="495" y="330" />
              <mxPoint x="520" y="380" />
            </Array>
          </mxGeometry>
        </mxCell>
        <mxCell id="3qSn1Zt4RomEvtN13Dh5-102" value="" style="verticalLabelPosition=bottom;verticalAlign=top;html=1;shape=mxgraph.basic.arc;startAngle=0.8450436170345483;endAngle=0.23974615003763536;dashed=1;" vertex="1" parent="1">
          <mxGeometry x="680" y="330" width="250" height="250" as="geometry" />
        </mxCell>
        <mxCell id="3qSn1Zt4RomEvtN13Dh5-103" value="" style="endArrow=classic;html=1;rounded=0;entryX=0.084;entryY=0.214;entryDx=0;entryDy=0;entryPerimeter=0;exitX=0.105;exitY=0.191;exitDx=0;exitDy=0;exitPerimeter=0;" edge="1" parent="1" source="3qSn1Zt4RomEvtN13Dh5-102" target="3qSn1Zt4RomEvtN13Dh5-102">
          <mxGeometry width="50" height="50" relative="1" as="geometry">
            <mxPoint x="780" y="450" as="sourcePoint" />
            <mxPoint x="830" y="400" as="targetPoint" />
          </mxGeometry>
        </mxCell>
        <mxCell id="3qSn1Zt4RomEvtN13Dh5-104" value="Rotation" style="text;html=1;align=center;verticalAlign=middle;whiteSpace=wrap;rounded=0;" vertex="1" parent="1">
          <mxGeometry x="820" y="300" width="60" height="30" as="geometry" />
        </mxCell>
        <mxCell id="3qSn1Zt4RomEvtN13Dh5-105" value="" style="endArrow=none;html=1;rounded=0;strokeColor=#FF6666;dashed=1;" edge="1" parent="1">
          <mxGeometry width="50" height="50" relative="1" as="geometry">
            <mxPoint x="678" y="366" as="sourcePoint" />
            <mxPoint x="800" y="480" as="targetPoint" />
          </mxGeometry>
        </mxCell>
        <mxCell id="3qSn1Zt4RomEvtN13Dh5-106" value="" style="rounded=0;whiteSpace=wrap;html=1;dashed=1;rotation=-128.9;fillColor=none;" vertex="1" parent="1">
          <mxGeometry x="34.49" y="662.89" width="159" height="80" as="geometry" />
        </mxCell>
        <mxCell id="3qSn1Zt4RomEvtN13Dh5-107" value="" style="rounded=0;whiteSpace=wrap;html=1;dashed=1;rotation=-128.9;fillColor=none;" vertex="1" parent="1">
          <mxGeometry x="130.52" y="709.54" width="63" height="32.49" as="geometry" />
        </mxCell>
        <mxCell id="3qSn1Zt4RomEvtN13Dh5-108" value="Redimensionnement" style="endArrow=classic;html=1;rounded=0;exitX=1;exitY=0;exitDx=0;exitDy=0;entryX=1;entryY=0;entryDx=0;entryDy=0;dashed=1;" edge="1" parent="1" source="3qSn1Zt4RomEvtN13Dh5-106" target="3qSn1Zt4RomEvtN13Dh5-107">
          <mxGeometry x="-0.4183" y="-26" width="50" height="50" relative="1" as="geometry">
            <mxPoint x="230" y="730" as="sourcePoint" />
            <mxPoint x="280" y="680" as="targetPoint" />
            <mxPoint as="offset" />
          </mxGeometry>
        </mxCell>
        <mxCell id="3qSn1Zt4RomEvtN13Dh5-109" value="" style="endArrow=classic;html=1;rounded=0;dashed=1;" edge="1" parent="1">
          <mxGeometry width="50" height="50" relative="1" as="geometry">
            <mxPoint x="781" y="729" as="sourcePoint" />
            <mxPoint x="1064" y="690" as="targetPoint" />
          </mxGeometry>
        </mxCell>
        <mxCell id="3qSn1Zt4RomEvtN13Dh5-111" value="Positionnement" style="endArrow=classic;html=1;rounded=0;dashed=1;" edge="1" parent="1">
          <mxGeometry x="-0.0039" y="13" width="50" height="50" relative="1" as="geometry">
            <mxPoint x="725" y="695" as="sourcePoint" />
            <mxPoint x="1020" y="650" as="targetPoint" />
            <mxPoint as="offset" />
          </mxGeometry>
        </mxCell>
      </root>
    </mxGraphModel>
  </diagram>
</mxfile>
